<?xml version="1.0" ?>
<!-- Uploaded to: SVG Repo, www.svgrepo.com, Generator: SVG Repo Mixer Tools -->
<svg width="800px" height="800px" viewBox="0 0 256 256" xmlns="http://www.w3.org/2000/svg">
<g>
<path d="m123.48 66.47c.43 12.92 1.59 125.78.28 133.63-1.18 7.07-5.7 19.84-14.33 21.18s-14.23-5.15-16.82-6-9.75 3.53-15.41-.34-4.42-14-6-15.72-10.34.31-14.54-5.49-.55-12-1.88-13.68-14.27-3.2-16.1-16.75c-2.08-15.55 10.39-18.59 10.32-21.01s-10.34-15.65-5.14-31.91 18.88-18 19.68-19.46-5.46-10.42 2.78-23.34 20.13-9.43 21.82-10.58-.29-6.24 5.44-13.45c5.29-6.66 15.41-8.3 22.72-4.09 6.63 3.86 6.75 14.09 7.18 27.01z" fill="#191919"/>
<path d="m107.06 229.47c-7.58 0-13.08-3.77-16.23-5.93l-.08-.05-.37.08c-3.87.89-11.08 2.54-17.69-2-5.94-4.06-7.45-10.76-8.16-15.52-4.21-.54-10.23-1.95-14.32-7.6a19.73 19.73 0 0 1 -3.53-13.45c-14-6.82-15.38-16.75-15.9-20.62-1.78-13.08 4.22-20.23 8.64-24.05-3-6.52-7.6-18.54-3.18-32.38a35.26 35.26 0 0 1 18.21-21.54c-.93-5.35-1-13.53 5.12-23.13 7-10.91 16.37-13.24 22.25-13.77a28 28 0 0 1 5.49-10.9c7.65-9.62 22.13-12.28 33-6 10.26 5.87 10.69 18.75 11.13 32.39v1.22c.32 9.58 1.72 126 .18 135.21-1.93 11.61-8.59 25.85-21 27.78a23.41 23.41 0 0 1 -3.56.26zm-15.22-22.24a10.49 10.49 0 0 1 3.15.46 18.08 18.08 0 0 1  4.88 2.65c3 2.07 5.38 3.5 8.34 3 2.71-.42 6.51-7.65 7.67-14.59 1.12-8.18.09-117.61-.39-132.05v-1.23c-.26-7.84-.57-17.6-3.14-19.08-4-2.31-9.72-1.33-12.47 2.13a12.18 12.18 0 0 0 -2.88 6.92c-.29 2.06-.82 5.89-4.46 8.28-2.31 1.52-4.68 1.56-6.77 1.6-3.84.07-8.62.17-12.7 6.56-4.33 6.79-3 11.49-2.16 14.6.57 2.05 1.43 5.15-.39 8.38-1.53 2.71-3.92 3.7-6 4.57-3.76 1.56-10 4.17-13 13.39-3 9.53 1 17.82 3.41 22.77 1.19 2.44 2.05 4.21 2.11 6.48.13 4.75-3.3 7.38-5.35 9-3 2.34-5.92 4.54-5 11.25.73 5.41 4.22 7.26 8.71 9.12 2.06.85 4.18 1.73 5.8 3.82 2.53 3.28 2 6.92 1.7 9.33s-.4 3.54.33 4.55c.61.84 3.27 1.11 5 1.28 2.83.28 6.36.63 9 3.56 2.16 2.41 2.55 5.27 3 8.3.2 1.48.73 5.4 1.59 6.16.82.56 3.37 0 5.06-.42a22.44 22.44 0 0 1 4.96-.79z" fill="#191919"/>
</g>
<g>
<path d="m132.29 63.82c-.67 13-1.88 126.42-.7 134.33 1.06 7.12 3 15.1 13.59 20.24 8 3.88 15.62-2.43 18.13-3.25s8.51.27 14.32-3.53 8.34-12.3 9.92-13.19 9.23-.12 13.6-5.89.8-11.79 1.3-13.67 11.92-4.1 14.06-16.43c2.64-15.17-9.72-19.26-10.06-21.31s9.28-9.24 6.29-23.55c-3.27-15.63-13.39-17.49-14.16-19.42s5.16-6.87 2.08-15.8-11-8.73-12.16-10.66 1.67-6.79-3.18-12.79c-5.05-6.25-15.3-3.09-17-4s-1.66-7.15-7.53-13.37c-4.6-4.87-14.63-7.39-21.29-1.73-5.91 5-6.5 11.04-7.21 24.02z" fill="#191919"/>
<path d="m150.54 227.64a20 20 0 0 1 -8.87-2.06c-15.19-7.4-17.09-20.14-18-26.26-1.36-9.09 0-124.6.62-135.93.64-12.4 1.15-22.19 10-29.72 10-8.48 24.76-5.64 32.29 2.33a32.91 32.91 0 0 1 6.82 10.88c5.06-.13 12.83.44 18.12 7a20.39 20.39 0 0 1 4.76 12.84 21.51 21.51 0 0 1  11.93 13 22.48 22.48 0 0 1 -.07 15.47c4.24 3.19 10 9.12 12.41 20.72a32.1 32.1 0 0 1 -3.95 23.62c4.37 4.12 10 11.67 7.77 24.26-1.86 10.66-8.76 16.09-13.29 18.88a19.24 19.24 0 0 1 -3.58 14.67c-4.63 6.12-11.19 7.64-15.16 8.27-1.88 3.5-5 9.16-10.36 12.67-5.8 3.79-11.56 4.18-15 4.41l-1.24.09-.79.42c-2.73 1.54-8.05 4.44-14.41 4.44zm-1.91-183.1a6 6 0 0 0 -4 1.34c-3.07 2.6-3.72 5.35-4.4 18.35s-1.75 124.77-.73 132.77c.91 6.13 2.11 10.76 9.18 14.2 2.42 1.18 5.34-.21 8.63-2a20.77 20.77 0 0 1 3.52-1.65 20.52 20.52 0 0 1  5.09-.78c2.47-.17 5-.34 7.32-1.84 2.07-1.35 3.91-4.79 5.14-7.06 1.43-2.66 2.66-5 5.25-6.41a13.88 13.88 0 0 1 5.14-1.45c2.7-.38 4.86-.79 6-2.29.77-1 .71-2 .15-4.61a12.82 12.82 0 0 1 -.19-6.32c1-3.75 3.92-5.39 6.26-6.7 3.82-2.15 6.81-4.18 7.65-9 1.17-6.75-2-9.24-5.1-11.64-1.85-1.44-4.38-3.42-5-7s1.25-6.44 2.74-8.63c2.15-3.15 5.1-7.47 3.61-14.59-1.76-8.43-5.68-10.87-8.53-12.65-1.82-1.13-4.08-2.54-5.23-5.47-1.54-3.89.09-7.26 1.06-9.28 1.06-2.2 1.9-3.94.89-6.86-.89-2.58-2.32-3.27-5-4.35-2-.81-4.76-1.93-6.49-4.83a12.23 12.23 0 0 1 -1.37-7.34c.11-1.92.16-2.88-1.15-4.5-1-1.29-5-1.07-7.14-1-2.56.14-5 .28-7.46-1.07-3.35-1.82-4.45-4.92-5.33-7.42a19.12 19.12 0 0 0 -4.14-7.46 9.53 9.53 0 0 0 -6.36-2.46z" fill="#191919"/>
</g>
<g>
<path d="m123.48 66.47c.43 12.92 1.59 125.78.28 133.63-1.18 7.07-5.7 19.84-14.33 21.18s-14.23-5.15-16.82-6-9.75 3.53-15.41-.34-4.42-14-6-15.72-10.34.31-14.54-5.49-.55-12-1.88-13.68-14.27-3.2-16.1-16.75c-2.08-15.55 10.39-18.59 10.32-21.01s-10.34-15.65-5.14-31.91 18.88-18 19.68-19.46-5.46-10.42 2.78-23.34 20.13-9.43 21.82-10.58-.29-6.24 5.44-13.45c5.29-6.66 15.41-8.3 22.72-4.09 6.63 3.86 6.75 14.09 7.18 27.01z" fill="#ffffff"/>
</g>
<g>
<path d="m132.29 63.82c-.67 13-1.88 126.42-.7 134.33 1.06 7.12 3 15.1 13.59 20.24 8 3.88 15.62-2.43 18.13-3.25s8.51.27 14.32-3.53 8.34-12.3 9.92-13.19 9.23-.12 13.6-5.89.8-11.79 1.3-13.67 11.92-4.1 14.06-16.43c2.64-15.17-9.72-19.26-10.06-21.31s9.28-9.24 6.29-23.55c-3.27-15.63-13.39-17.49-14.16-19.42s5.16-6.87 2.08-15.8-11-8.73-12.16-10.66 1.67-6.79-3.18-12.79c-5.05-6.25-15.3-3.09-17-4s-1.66-7.15-7.53-13.37c-4.6-4.87-14.63-7.39-21.29-1.73-5.91 5-6.5 11.04-7.21 24.02z" fill="#ffffff"/>
</g>
<g>
<path d="m152.16 76c-4.5-3.15-51.77 44.84-50.25 48.77s16.93 3.7 19 6.09-16.74 44.47-13.25 47.2c2.62 2 49.83-44.23 49.13-48.38s-13.36-3.37-16.13-6 14.72-45.41 11.5-47.68z" fill="#e83a2a"/>
</g>
<path d="m11.15 147.17c2.17 0 15.49-3.55 17.67-4.89s-.4-8.91-2.07-9.25-15.75 3.73-17.67 4.89-.08 9.28 2.07 9.25z" fill="#191919"/>
<path d="m8.36 97.94c-1.7-1.74.58-8.44 3.17-8.47s14.95 4.09 16.47 5.53-.27 8.17-3.17 8.47-14.6-3.62-16.47-5.53z" fill="#191919"/>
<path d="m34.5 67.22c-1.09-2.18 3.14-7.85 5.61-7.09s7.89 4.87 8.79 6.68-2.76 7.69-5.61 7.09-7.59-4.3-8.79-6.68z" fill="#191919"/>
<path d="m24 196.51c-2.43-.12-5.31-6.58-3.44-8.37s8-4.47 10.13-4.4 5.36 6.17 3.44 8.37-7.5 4.52-10.13 4.4z" fill="#191919"/>
<path d="m241.72 104.39c-1.64-.17-10.78 1.87-12.52 3s .88 8.66 2.11 9.14 11-2 12.52-3-.47-8.97-2.11-9.14z" fill="#191919"/>
<path d="m219.86 88.45c-2.43-.09-5.38-6.52-3.52-8.33s13.66-7.32 15.74-7.26 5.57 5.83 3.67 8-13.22 7.68-15.89 7.59z" fill="#191919"/>
<path d="m250 142c2.06 1.29 1.41 8.34-1.1 9s-15.49-.47-17.27-1.56-1.65-8 1.1-9 15.01.13 17.27 1.56z" fill="#191919"/>
<path d="m238.12 177.63c1.72 1.72-.52 8.44-3.11 8.49s-8.52-2.18-10-3.64.21-8.17 3.11-8.49 8.11 1.75 10 3.64z" fill="#191919"/>
</svg>