<?xml version="1.0" encoding="utf-8"?>
<!-- Uploaded to: SVG Repo, www.svgrepo.com, Generator: SVG Repo Mixer Tools -->
<svg width="800px" height="800px" viewBox="0 -45.84 304.86 304.86" xmlns="http://www.w3.org/2000/svg"><defs><style>.a{fill:#ffffff;}.b{fill:#211715;}.c{fill:#88c5e9;}.d{fill:#fec578;}.e{fill:#74c66d;}.f{fill:#cfcfcf;}</style></defs><path class="a" d="M36.062,115.325c-.013-32.511-.03-75.6-.04-103.111a9.738,9.738,0,0,1,9.742-9.743C87.74,2.458,209.372,2.417,259.143,2.4a9.744,9.744,0,0,1,9.75,9.746c0,36.9.016,96.835.03,135.018,7.708,10.832,24.245,33.628,32.332,47.437a8.931,8.931,0,0,1,1.219,4.525c0,1.409-.03,3.115-.03,4.876a6.766,6.766,0,0,1-6.765,6.757H8.148a5.641,5.641,0,0,1-5.642-5.639c0-8.7-.032,2.554-.032-5.982A8.984,8.984,0,0,1,3.7,194.593c8.175-13.959,24.778-37.473,32.378-48.142C36.071,138.581,36.067,127.722,36.062,115.325Z"/><path class="a" d="M107.656,114.938c-.012-12.632-.027-73.765-.027-76.492h94.892v.8c0,2.861.028,56.644.04,75.69"/><path class="b" d="M38.462,115.325q-.012-29.748-.023-59.5-.006-14.342-.011-28.683,0-6.3,0-12.6c0-1.826-.135-3.645.636-5.353a7.448,7.448,0,0,1,3.68-3.68c2.29-1.041,5.181-.639,7.645-.639l7.513,0,17.841,0,43.706-.015,49.066-.016,47.308-.017L254.412,4.8c2.867,0,6.054-.454,8.606,1.1a7.262,7.262,0,0,1,3.1,3.913,17.132,17.132,0,0,1,.376,5.331q0,12.561,0,25.121,0,28.685.013,57.368,0,13.972.008,27.947,0,6.425,0,12.849,0,3.012,0,6.025c0,.895-.062,1.816,0,2.708a5.291,5.291,0,0,0,1.359,2.657c9.7,13.6,19.586,27.132,28.453,41.3.968,1.546,1.964,3.091,2.847,4.687,1.281,2.315.882,5.055.863,7.6a4.647,4.647,0,0,1-2.166,4.347,5.894,5.894,0,0,1-3.155.595H10.837c-1.414,0-3.2.274-4.433-.507-2.158-1.368-1.355-4.111-1.5-6.257-.18-2.548-4.105-3.438-4.715-.638a15.373,15.373,0,0,0-.1,1.6h4.8a13.308,13.308,0,0,1,.454-5.888c1.056-2.627,2.987-5.121,4.494-7.509,3.495-5.541,7.131-10.993,10.813-16.412q5.466-8.044,11.071-15.994,2.354-3.35,4.725-6.688a11.487,11.487,0,0,0,1.95-2.974c.415-1.507.084-3.552.084-5.1q-.006-13.332-.011-26.663c0-3.089-4.8-3.094-4.8,0q.006,15.562.013,31.126L34,145.239c-10.594,14.877-21.258,29.805-30.75,45.419-1.483,2.439-2.9,4.762-3.14,7.684a23.7,23.7,0,0,0-.03,4.212,2.4,2.4,0,0,0,4.8,0c.046-.4.2-1.572-.069-.322L.1,201.594c.062.886.007,1.794.007,2.681a8.873,8.873,0,0,0,2.1,6.252c2.078,2.319,4.858,2.631,7.76,2.631h282.4a20.511,20.511,0,0,0,5.938-.382,9.368,9.368,0,0,0,5.186-3.99c1.366-2.2,1.346-4.579,1.367-7.079.026-2.964-.049-5.66-1.529-8.319-.95-1.708-2.015-3.362-3.054-5.017-2.333-3.716-4.754-7.376-7.209-11.011-5.177-7.666-10.517-15.221-15.888-22.752q-3.087-4.329-6.18-8.656l.327,1.211q-.009-26.334-.017-52.668-.007-28.235-.012-56.47,0-12.289,0-24.579c0-4.2-1.159-8.069-4.571-10.774C263.617.212,260.165,0,256.376,0L219.1.013l-46.28.016L124.232.046,80.033.06,46.814.071c-3.886,0-7.529,1.1-10.157,4.12-2.951,3.393-3.035,7.281-3.034,11.541q.006,13.26.01,26.52l.024,59.469q0,6.8.005,13.6C33.663,118.414,38.463,118.419,38.462,115.325Z"/><path class="b" d="M279.088,192.945H34.58c-3.3,0-6.61-.059-9.912,0-.144,0-.288,0-.433,0-3.088,0-3.094,4.8,0,4.8H268.743c3.3,0,6.61.059,9.912,0,.144,0,.288,0,.433,0,3.088,0,3.094-4.8,0-4.8Z"/><path class="b" d="M47.037,20.676q.006,16.754.013,33.508.008,19.428.016,38.857.007,16.5.014,33.01,0,2.955,0,5.908a31.814,31.814,0,0,0,.172,5.785,8.374,8.374,0,0,0,6.894,6.6,40.293,40.293,0,0,0,5.929.122l26.571-.01,33.952-.012,37.3-.012,36.556-.012,32.214-.01,13.186,0h5.6a27.9,27.9,0,0,0,6.043-.235,8.458,8.458,0,0,0,6.388-7.635c.239-3.133.021-6.365.019-9.508q0-10.554-.008-21.107l-.018-45.077q-.009-19.611-.017-39.22c0-3.5-1.266-6.867-4.614-8.486a13.024,13.024,0,0,0-5.931-.894l-8.782,0-24.833.008-31.792.01-35.049.012-34.692.01-30.6.01-23.186.007c-1.891,0-3.905-.177-5.71.468a8.512,8.512,0,0,0-5.635,7.9c-.085,3.09,4.715,3.088,4.8,0,.067-2.443,2.007-3.569,4.229-3.57h4.483l10.677,0L98.7,17.094l32.707-.011,34.561-.011,33.035-.01,28.134-.009,19.853-.007c1.334,0,2.906-.224,4.12.383,2.488,1.242,1.953,4.257,1.953,6.559q0,9.209.008,18.415.009,21.5.017,43l.018,42.508,0,4.642a19.948,19.948,0,0,1-.1,4.326c-.56,2.414-2.755,2.73-4.837,2.731l-10.915,0-28.628.009-34.506.012-36.7.012-35.216.012-30.048.01-11.984,0a50.65,50.65,0,0,1-5.066,0c-2.45-.251-3.223-2.353-3.224-4.484q-.006-13.2-.011-26.41-.009-18.483-.016-36.967l-.015-36.689q0-7.221,0-14.442C51.835,17.588,47.035,17.582,47.037,20.676Z"/><path class="b" d="M110.056,114.938q-.014-15.267-.014-30.532-.006-18.432-.011-36.863,0-4.548,0-9.1l-2.4,2.4h94.892l-2.4-2.4q0,10.883.01,21.765.009,18.951.02,37.9,0,8.414.01,16.826c0,3.088,4.8,3.093,4.8,0q-.011-16.686-.019-33.37-.009-17.223-.017-34.446,0-4.338,0-8.676a2.435,2.435,0,0,0-2.4-2.4H107.629a2.435,2.435,0,0,0-2.4,2.4q0,11.733.006,23.466,0,19.42.013,38.841,0,7.092.008,14.185c0,3.088,4.8,3.093,4.8,0Z"/><path class="c" d="M143.846,114.939h22.192v-35.3H143.846v35.3"/><path class="b" d="M168.438,114.605V78.626c0-3.088-4.8-3.094-4.8,0v35.979c0,3.088,4.8,3.093,4.8,0Z"/><path class="d" d="M143.846,79.634H104.038c.052,11.938-.01,26.205-.01,35.3h39.818V80.329"/><path class="b" d="M114.913,79.041q0,15.2,0,30.4v5.167c0,3.088,4.8,3.093,4.8,0q0-15.068,0-30.135,0-2.713,0-5.429c0-3.089-4.8-3.094-4.8,0Z"/><path class="b" d="M128.178,79.041v35.564c0,3.088,4.8,3.093,4.8,0V79.041c0-3.089-4.8-3.094-4.8,0Z"/><path class="b" d="M101.635,79.041c.055,11.966-.007,23.932-.007,35.9,0,3.089,4.8,3.094,4.8,0,0-11.966.062-23.932.007-35.9-.014-3.088-4.814-3.094-4.8,0Z"/><path class="b" d="M181.6,112.539H104.028c-3.089,0-3.094,4.8,0,4.8H181.6c3.089,0,3.094-4.8,0-4.8Z"/><path class="e" d="M180.907,105.531a6.2,6.2,0,0,1,.457-5.7c1.017-1.394,2.841-2.595,6.073-2.595h16.108c3.9,0,5.471,1.613,6.263,3.388a7.065,7.065,0,0,1-.233,4.91"/><path class="b" d="M183.221,104.893c-1-2.8.083-4.716,2.861-5.171a27.277,27.277,0,0,1,4.346-.089h10.48a17.546,17.546,0,0,1,4.672.237c.091.025.558.186.569.192.119.055.788.508.613.362a2.147,2.147,0,0,1,.777,1c.239.444-.026-.3.094.24a2.686,2.686,0,0,1,.1.651,4.52,4.52,0,0,1-.227,2,2.476,2.476,0,0,0,.861,3.284,2.419,2.419,0,0,0,3.284-.861,8.578,8.578,0,0,0-.908-9.1c-2.255-2.679-5.723-2.813-8.961-2.813H191.471c-3.19,0-6.617-.332-9.5,1.307a8.172,8.172,0,0,0-3.378,10.029,2.461,2.461,0,0,0,2.952,1.677,2.421,2.421,0,0,0,1.676-2.953Z"/><path class="a" d="M179.826,114.939v-9.407h30.315v9.407"/><path class="b" d="M182.226,114.939v-9.407l-2.4,2.4h30.315l-2.4-2.4v9.407l2.4-2.4H179.826c-3.088,0-3.094,4.8,0,4.8h30.315a2.435,2.435,0,0,0,2.4-2.4v-9.407a2.435,2.435,0,0,0-2.4-2.4H179.826a2.435,2.435,0,0,0-2.4,2.4v9.407C177.426,118.028,182.226,118.033,182.226,114.939Z"/><path class="c" d="M193.425,54.025c-.958,0-20.662.019-22.262.019V69.228h22.218C193.381,67.521,193.425,54.508,193.425,54.025Z"/><path class="b" d="M195.781,69.228c0-5.068.04-10.135.044-15.2a2.435,2.435,0,0,0-2.4-2.4q-9.464,0-18.927.017l-3.335,0a2.435,2.435,0,0,0-2.4,2.4V69.228c0,3.089,4.8,3.094,4.8,0V54.044l-2.4,2.4q9.63,0,19.259-.017l3,0-2.4-2.4c0,5.068-.043,10.135-.044,15.2,0,3.089,4.8,3.094,4.8,0Z"/><path class="b" d="M179.894,54.044V71.949a2.4,2.4,0,0,0,4.8,0V69.228a2.4,2.4,0,1,0-4.8,0v2.721a2.4,2.4,0,0,0,4.8,0v-17.9a2.4,2.4,0,1,0-4.8,0Z"/><path class="f" d="M104.035,68.634H206.5v11H104.035Z"/><path class="b" d="M104.035,71.034H206.5l-2.4-2.4v11l2.4-2.4H104.035l2.4,2.4v-11c0-3.088-4.8-3.093-4.8,0v11a2.435,2.435,0,0,0,2.4,2.4H206.5a2.435,2.435,0,0,0,2.4-2.4v-11a2.435,2.435,0,0,0-2.4-2.4H104.035C100.947,66.234,100.941,71.034,104.035,71.034Z"/><path class="b" d="M146.246,114.939V80.329c0-3.089-4.8-3.094-4.8,0v34.61c0,3.089,4.8,3.094,4.8,0Z"/></svg>