<svg width="220" height="50" viewBox="0 0 220 50" fill="none" xmlns="http://www.w3.org/2000/svg">
<g clip-path="url(#clip0_893_2384)">
<mask id="mask0_893_2384" style="mask-type:alpha" maskUnits="userSpaceOnUse" x="4" y="33" width="59" height="18">
<path d="M4.31104 33.5049H62.873V50.2009H4.31104V33.5049Z" fill="white"/>
</mask>
<g mask="url(#mask0_893_2384)">
<path fill-rule="evenodd" clip-rule="evenodd" d="M20.192 49.201C15.213 49.201 10.276 47.437 6.05504 44.053L5.31104 43.455L12.925 34.858C13.0851 34.6773 13.3104 34.5675 13.5514 34.5529C13.7924 34.5383 14.0293 34.62 14.21 34.78C14.3908 34.9401 14.5005 35.1654 14.5152 35.4064C14.5298 35.6474 14.4481 35.8843 14.288 36.065L7.95304 43.216C13.273 47.139 19.697 48.364 25.72 46.573L33.091 44.378L40.462 46.573C46.482 48.364 52.905 47.139 58.226 43.219L51.811 36.021C51.6506 35.8407 51.5683 35.604 51.5824 35.363C51.5965 35.122 51.7057 34.8965 51.886 34.736C52.0664 34.5756 52.3031 34.4933 52.5441 34.5074C52.7851 34.5215 53.0106 34.6307 53.171 34.811L60.873 43.454L60.126 44.054C54.19 48.814 46.834 50.368 39.943 48.317L33.091 46.278L26.239 48.318C24.2768 48.9037 22.2399 49.2015 20.192 49.202" fill="black"/>
<path d="M20.192 49.201C15.213 49.201 10.276 47.437 6.05504 44.053L5.31104 43.455L12.925 34.858C13.0851 34.6773 13.3104 34.5675 13.5514 34.5529C13.7924 34.5383 14.0293 34.62 14.21 34.78C14.3908 34.9401 14.5005 35.1654 14.5152 35.4064C14.5298 35.6474 14.4481 35.8843 14.288 36.065L7.95304 43.216C13.273 47.139 19.697 48.364 25.72 46.573L33.091 44.378L40.462 46.573C46.482 48.364 52.905 47.139 58.226 43.219L51.811 36.021C51.6506 35.8407 51.5683 35.604 51.5824 35.363C51.5965 35.122 51.7057 34.8965 51.886 34.736C52.0664 34.5756 52.3031 34.4933 52.5441 34.5074C52.7851 34.5215 53.0106 34.6307 53.171 34.811L60.873 43.454L60.126 44.054C54.19 48.814 46.834 50.368 39.943 48.317L33.091 46.278L26.239 48.318C24.2768 48.9037 22.2399 49.2015 20.192 49.202" stroke="black" stroke-linejoin="round"/>
</g>
<path fill-rule="evenodd" clip-rule="evenodd" d="M33.0891 45.3751L18.0921 36.7211C16.4285 35.515 15.0792 33.9266 14.158 32.0898C13.2369 30.253 12.7708 28.2217 12.7991 26.1671L12.9261 17.3091L18.9231 19.2791C19.0385 19.3146 19.1457 19.3729 19.2383 19.4503C19.331 19.5278 19.4073 19.6229 19.4628 19.7302C19.5182 19.8374 19.5518 19.9547 19.5615 20.0751C19.5711 20.1955 19.5567 20.3166 19.519 20.4313C19.4813 20.5461 19.4212 20.6521 19.342 20.7434C19.2629 20.8346 19.1664 20.9092 19.0581 20.9627C18.9498 21.0162 18.832 21.0476 18.7115 21.055C18.5909 21.0625 18.4701 21.0458 18.3561 21.0061L14.7101 19.8101L14.6181 26.1931C14.5941 27.9479 14.9904 29.6831 15.774 31.2535C16.5575 32.8239 17.7055 34.184 19.1221 35.2201L33.0951 43.2781L47.2351 35.2181C48.6584 34.1834 49.8123 32.8219 50.5996 31.2482C51.3869 29.6744 51.7846 27.9346 51.7591 26.1751L51.6691 19.7981L47.5141 21.1231C47.2841 21.1964 47.0345 21.1754 46.82 21.0647C46.6056 20.9539 46.4439 20.7625 46.3706 20.5326C46.2972 20.3026 46.3182 20.053 46.429 19.8385C46.5397 19.6241 46.7311 19.4624 46.9611 19.3891L53.4541 17.3201L53.5781 26.1501C53.6072 28.2098 53.139 30.2461 52.2132 32.0862C51.2874 33.9263 49.9313 35.5159 48.2601 36.7201L48.1791 36.7721L33.0881 45.3741L33.0891 45.3751Z" fill="black" stroke="black" stroke-linecap="round" stroke-linejoin="round"/>
<path fill-rule="evenodd" clip-rule="evenodd" d="M33.1299 30.9238L20.4819 23.6938L33.1299 41.5738L45.4999 23.6938L33.1299 30.9238Z" fill="black"/>
<path fill-rule="evenodd" clip-rule="evenodd" d="M33.13 0L20.877 20.441L33.105 27.861L45.501 20.541L33.13 0Z" fill="black"/>
<mask id="mask1_893_2384" style="mask-type:alpha" maskUnits="userSpaceOnUse" x="0" y="23" width="13" height="16">
<path d="M0 23.938H12.33V38.189H0V23.938Z" fill="white"/>
</mask>
<g mask="url(#mask1_893_2384)">
<path fill-rule="evenodd" clip-rule="evenodd" d="M7.844 37.1889C7.63798 37.1886 7.43816 37.1184 7.27722 36.9898C7.11627 36.8612 7.00373 36.6818 6.958 36.4809C6.354 33.8259 4.648 30.9949 2.026 28.2929L1 27.2389L2.403 26.7929C5.498 25.8089 8.203 25.6749 10.672 26.3879C10.9038 26.4547 11.0996 26.6109 11.2162 26.8221C11.3328 27.0333 11.3608 27.2821 11.294 27.5139C11.2272 27.7457 11.071 27.9415 10.8598 28.0581C10.6487 28.1748 10.3998 28.2027 10.168 28.1359C8.398 27.6259 6.524 27.6219 4.354 28.1359C6.634 30.7459 8.139 33.4689 8.733 36.0779C8.76263 36.2113 8.76195 36.3496 8.73102 36.4826C8.70009 36.6157 8.63969 36.7401 8.55429 36.8467C8.46888 36.9533 8.36063 37.0394 8.23753 37.0987C8.11443 37.1579 7.97961 37.1887 7.843 37.1889" fill="black"/>
<path d="M7.844 37.1889C7.63798 37.1886 7.43816 37.1184 7.27722 36.9898C7.11627 36.8612 7.00373 36.6818 6.958 36.4809C6.354 33.8259 4.648 30.9949 2.026 28.2929L1 27.2389L2.403 26.7929C5.498 25.8089 8.203 25.6749 10.672 26.3879C10.9038 26.4547 11.0996 26.6109 11.2162 26.8221C11.3328 27.0333 11.3608 27.2821 11.294 27.5139C11.2272 27.7457 11.071 27.9415 10.8598 28.0581C10.6487 28.1748 10.3998 28.2027 10.168 28.1359C8.398 27.6259 6.524 27.6219 4.354 28.1359C6.634 30.7459 8.139 33.4689 8.733 36.0779C8.76263 36.2113 8.76195 36.3496 8.73102 36.4826C8.70009 36.6157 8.63969 36.7401 8.55429 36.8467C8.46888 36.9533 8.36063 37.0394 8.23753 37.0987C8.11443 37.1579 7.97961 37.1887 7.843 37.1889" stroke="black" stroke-linecap="round" stroke-linejoin="round"/>
</g>
<path fill-rule="evenodd" clip-rule="evenodd" d="M58.4299 37.1889C58.2933 37.1888 58.1584 37.158 58.0352 37.0987C57.9121 37.0394 57.8039 36.9532 57.7186 36.8464C57.6333 36.7396 57.5732 36.615 57.5426 36.4818C57.512 36.3486 57.5118 36.2102 57.5419 36.0769C58.1369 33.4679 59.6419 30.7459 61.9209 28.1359C59.7509 27.6219 57.8779 27.6259 56.1069 28.1359C55.9922 28.1692 55.8721 28.1795 55.7534 28.1663C55.6347 28.153 55.5198 28.1164 55.4152 28.0586C55.3107 28.0008 55.2186 27.923 55.1443 27.8295C55.0699 27.736 55.0147 27.6288 54.9819 27.5139C54.9486 27.3993 54.9382 27.2792 54.9513 27.1605C54.9644 27.0418 55.0008 26.9269 55.0584 26.8223C55.116 26.7177 55.1936 26.6255 55.2869 26.551C55.3802 26.4764 55.4872 26.421 55.6019 26.3879C58.0719 25.6749 60.7779 25.8089 63.8719 26.7929L65.2749 27.2389L64.2499 28.2929C61.6269 30.9939 59.9219 33.8249 59.3169 36.4809C59.2712 36.6818 59.1587 36.8612 58.9977 36.9898C58.8368 37.1184 58.637 37.1886 58.4309 37.1889" fill="black"/>
<path d="M58.4299 37.1889C58.2933 37.1888 58.1584 37.158 58.0352 37.0987C57.9121 37.0394 57.8039 36.9532 57.7186 36.8464C57.6333 36.7396 57.5732 36.615 57.5426 36.4818C57.512 36.3486 57.5118 36.2102 57.5419 36.0769C58.1369 33.4679 59.6419 30.7459 61.9209 28.1359C59.7509 27.6219 57.8779 27.6259 56.1069 28.1359C55.9922 28.1692 55.8721 28.1795 55.7534 28.1663C55.6347 28.153 55.5198 28.1164 55.4152 28.0586C55.3107 28.0008 55.2186 27.923 55.1443 27.8295C55.0699 27.736 55.0147 27.6288 54.9819 27.5139C54.9486 27.3993 54.9382 27.2792 54.9513 27.1605C54.9644 27.0418 55.0008 26.9269 55.0584 26.8223C55.116 26.7177 55.1936 26.6255 55.2869 26.551C55.3802 26.4764 55.4872 26.421 55.6019 26.3879C58.0719 25.6749 60.7779 25.8089 63.8719 26.7929L65.2749 27.2389L64.2499 28.2929C61.6269 30.9939 59.9219 33.8249 59.3169 36.4809C59.2712 36.6818 59.1587 36.8612 58.9977 36.9898C58.8368 37.1184 58.637 37.1886 58.4309 37.1889" stroke="black"/>
<path fill-rule="evenodd" clip-rule="evenodd" d="M18.6209 17.4371C18.4928 17.4374 18.3661 17.4105 18.2491 17.3584C18.132 17.3062 18.0274 17.2299 17.9419 17.1344C17.8565 17.0389 17.7922 16.9265 17.7532 16.8044C17.7143 16.6824 17.7016 16.5534 17.7159 16.4261L18.4399 9.95312L22.9749 13.0451C23.1682 13.1834 23.2997 13.3919 23.3413 13.6259C23.3829 13.8599 23.3313 14.1008 23.1976 14.2973C23.0638 14.4938 22.8585 14.6301 22.6256 14.6771C22.3926 14.7242 22.1505 14.6783 21.9509 14.5491L19.9119 13.1591L19.5239 16.6281C19.4991 16.8504 19.3933 17.0557 19.2268 17.2049C19.0602 17.3541 18.8446 17.4368 18.6209 17.4371" fill="black"/>
<path d="M18.6209 17.4371C18.4928 17.4374 18.3661 17.4105 18.2491 17.3584C18.132 17.3062 18.0274 17.2299 17.9419 17.1344C17.8565 17.0389 17.7922 16.9265 17.7532 16.8044C17.7143 16.6824 17.7016 16.5534 17.7159 16.4261L18.4399 9.95312L22.9749 13.0451C23.1682 13.1834 23.2997 13.3919 23.3413 13.6259C23.3829 13.8599 23.3313 14.1008 23.1976 14.2973C23.0638 14.4938 22.8585 14.6301 22.6256 14.6771C22.3926 14.7242 22.1505 14.6783 21.9509 14.5491L19.9119 13.1591L19.5239 16.6281C19.4991 16.8504 19.3933 17.0557 19.2268 17.2049C19.0602 17.3541 18.8446 17.4368 18.6209 17.4371" stroke="black" stroke-linejoin="round"/>
<path fill-rule="evenodd" clip-rule="evenodd" d="M47.35 17.4368C47.1289 17.4366 46.9155 17.3557 46.7498 17.2093C46.5841 17.063 46.4775 16.8612 46.45 16.6418L46.004 13.1448L43.946 14.5488C43.7465 14.6847 43.5013 14.7358 43.2641 14.6909C43.027 14.646 42.8174 14.5087 42.6815 14.3093C42.5456 14.1099 42.4944 13.8646 42.5393 13.6274C42.5843 13.3903 42.7215 13.1807 42.921 13.0448L47.435 9.9668L48.254 16.4128C48.2702 16.541 48.2589 16.6712 48.2208 16.7947C48.1828 16.9182 48.1189 17.0322 48.0333 17.1291C47.9478 17.2259 47.8426 17.3035 47.7248 17.3565C47.607 17.4096 47.4792 17.437 47.35 17.4368" fill="black"/>
<path d="M47.35 17.4368C47.1289 17.4366 46.9155 17.3557 46.7498 17.2093C46.5841 17.063 46.4775 16.8612 46.45 16.6418L46.004 13.1448L43.946 14.5488C43.7465 14.6847 43.5013 14.7358 43.2641 14.6909C43.027 14.646 42.8174 14.5087 42.6815 14.3093C42.5456 14.1099 42.4944 13.8646 42.5393 13.6274C42.5843 13.3903 42.7215 13.1807 42.921 13.0448L47.435 9.9668L48.254 16.4128C48.2702 16.541 48.2589 16.6712 48.2208 16.7947C48.1828 16.9182 48.1189 17.0322 48.0333 17.1291C47.9478 17.2259 47.8426 17.3035 47.7248 17.3565C47.607 17.4096 47.4792 17.437 47.35 17.4368" stroke="black" stroke-linecap="round" stroke-linejoin="round"/>
<path fill-rule="evenodd" clip-rule="evenodd" d="M139.034 13.688V24.953H125.624V13.69H80.5559V40.42H101.146V36.22H86.0419V29.154H101.147V24.954H86.0419V17.89H107.927V40.42H113.411V17.89H120.138V40.42H125.623V29.154H139.034V40.419H144.518V13.69L139.034 13.688Z" fill="black"/>
<mask id="mask2_893_2384" style="mask-type:alpha" maskUnits="userSpaceOnUse" x="2" y="1" width="218" height="49">
<path d="M2 49.201H220V1H2V49.201Z" fill="white"/>
</mask>
<g mask="url(#mask2_893_2384)">
<path fill-rule="evenodd" clip-rule="evenodd" d="M148.144 40.4191H152.488V13.6011H148.144V40.4191Z" fill="black"/>
</g>
<mask id="mask3_893_2384" style="mask-type:alpha" maskUnits="userSpaceOnUse" x="2" y="1" width="218" height="49">
<path d="M2 49.201H220V1H2V49.201Z" fill="white"/>
</mask>
<g mask="url(#mask3_893_2384)">
<path fill-rule="evenodd" clip-rule="evenodd" d="M156.313 22.2598H160.527V23.9378C161.994 22.4838 163.647 21.7568 165.486 21.7568C167.599 21.7568 169.246 22.4218 170.426 23.7518C171.446 24.8818 171.956 26.7278 171.956 29.2888V40.4188H167.743V30.2778C167.743 28.4878 167.493 27.2518 166.997 26.5678C166.51 25.8718 165.628 25.5238 164.348 25.5238C162.956 25.5238 161.968 25.9838 161.383 26.9038C160.811 27.8108 160.526 29.3958 160.526 31.6578V40.4208H156.312V22.2598H156.313Z" fill="black"/>
</g>
<mask id="mask4_893_2384" style="mask-type:alpha" maskUnits="userSpaceOnUse" x="2" y="1" width="218" height="49">
<path d="M2 49.201H220V1H2V49.201Z" fill="white"/>
</mask>
<g mask="url(#mask4_893_2384)">
<path d="M178.008 31.2831C178.008 33.0241 178.475 34.4411 179.407 35.5341C180.363 36.6411 181.569 37.1941 183.024 37.1941C184.577 37.1941 185.832 36.6601 186.79 35.5911C187.747 34.4841 188.226 33.0811 188.226 31.3771C188.226 29.6741 187.746 28.2691 186.79 27.1631C185.832 26.0831 184.59 25.5411 183.062 25.5411C181.618 25.5411 180.412 26.0881 179.445 27.1811C178.487 28.2881 178.008 29.6561 178.008 31.2831V31.2831ZM187.964 13.6011H192.178V40.4201H187.964V38.5181C186.312 40.1351 184.441 40.9431 182.353 40.9431C179.866 40.9431 177.803 40.0351 176.162 38.2201C174.532 36.3681 173.72 34.0561 173.72 31.2841C173.72 28.5751 174.533 26.3141 176.162 24.4981C177.778 22.6711 179.81 21.7581 182.259 21.7581C184.385 21.7581 186.286 22.6281 187.964 24.3681V13.6001V13.6011Z" fill="black"/>
</g>
<mask id="mask5_893_2384" style="mask-type:alpha" maskUnits="userSpaceOnUse" x="2" y="1" width="218" height="49">
<path d="M2 49.201H220V1H2V49.201Z" fill="white"/>
</mask>
<g mask="url(#mask5_893_2384)">
<path d="M195.182 40.4188H199.377V22.2588H195.182V40.4188ZM194.548 16.3058C194.548 15.5718 194.815 14.9378 195.35 14.4038C195.599 14.1459 195.897 13.9417 196.228 13.8038C196.558 13.6659 196.913 13.5971 197.271 13.6018C198.028 13.6018 198.674 13.8698 199.209 14.4038C199.743 14.9258 200.011 15.5658 200.011 16.3238C200.011 17.0818 199.743 17.7288 199.209 18.2628C198.962 18.5223 198.664 18.7277 198.333 18.8658C198.003 19.0038 197.647 19.0716 197.289 19.0648C196.928 19.0707 196.57 19.0026 196.237 18.8646C195.903 18.7267 195.601 18.5219 195.35 18.2628C194.815 17.7288 194.548 17.0768 194.548 16.3058Z" fill="black"/>
</g>
<mask id="mask6_893_2384" style="mask-type:alpha" maskUnits="userSpaceOnUse" x="2" y="1" width="218" height="49">
<path d="M2 49.201H220V1H2V49.201Z" fill="white"/>
</mask>
<g mask="url(#mask6_893_2384)">
<path d="M205.83 31.2828C205.83 33.0238 206.296 34.4408 207.228 35.5338C208.185 36.6408 209.392 37.1938 210.846 37.1938C212.399 37.1938 213.656 36.6598 214.611 35.5908C215.568 34.4838 216.048 33.0808 216.048 31.3768C216.048 29.6738 215.568 28.2688 214.611 27.1628C213.655 26.0828 212.412 25.5408 210.883 25.5408C209.441 25.5408 208.235 26.0878 207.266 27.1808C206.309 28.2878 205.83 29.6558 205.83 31.2828V31.2828ZM215.786 22.2598H220V40.4198H215.786V38.5168C214.059 40.1338 212.2 40.9418 210.212 40.9418C207.7 40.9418 205.625 40.0338 203.983 38.2188C202.356 36.3668 201.543 34.0548 201.543 31.2828C201.543 28.5608 202.356 26.2928 203.983 24.4778C205.613 22.6628 207.65 21.7578 210.1 21.7578C212.213 21.7578 214.108 22.6258 215.786 24.3658V22.2598V22.2598Z" fill="black"/>
</g>
</g>
<defs>
<clipPath id="clip0_893_2384">
<rect width="220" height="50" fill="white"/>
</clipPath>
</defs>
</svg>
